<svg id="Grupo_1" data-name="Grupo 1" xmlns="http://www.w3.org/2000/svg" width="1080" height="1080" viewBox="0 0 1080 1080">
  <rect id="Rectángulo_1" data-name="Rectángulo 1" width="1080" height="1080" fill="#181818"/>
  <path id="Trazado_2" data-name="Trazado 2" d="M585.915-502.969q124.361,0,187.359,52.908t63,135.815q0,50.726-22.363,104.452T747.093-106.16Q702.639-56.252,643.186-16.707T502.462,46.837q-81.271,24-170.178,24-19.09,0-26.727-1.091l-78,158.724h-180L159.379-.617q-33.817-46.908-33.817-117.27,0-72.544,33.817-134.452t94.907-100.089l8.727,13.636q-56.726,37.09-88.634,95.18T142.47-117.887q0,58.908,25.636,99.271L404.828-502.969ZM332.284,53.927q51.272,0,102.543-30.272t91.362-78.816a676.253,676.253,0,0,0,71.726-106.361q31.636-57.817,48.817-116.452t17.181-105.543q0-47.454-19.09-75.271t-57.817-27.818h-8.727L313.193,53.927Z" transform="translate(98.437 676.969)" fill="#e80d7f"/>
</svg>
